<?xml version="1.0" encoding="utf-8"?>
<!-- Generator: Adobe Illustrator 24.3.0, SVG Export Plug-In . SVG Version: 6.00 Build 0)  -->
<svg version="1.1" id="Layer_1" xmlns="http://www.w3.org/2000/svg" xmlns:xlink="http://www.w3.org/1999/xlink" x="0px" y="0px"
	 viewBox="0 0 100 100" style="enable-background:new 0 0 100 100;" xml:space="preserve">
<style type="text/css">
	.st0{fill:#007856;}
	.st1{fill:none;stroke:#FFFFFF;stroke-width:1.9534;stroke-miterlimit:10;}
	.st2{fill:none;stroke:#FFFFFF;stroke-width:2.2582;stroke-miterlimit:10;}
</style>
<circle class="st0" cx="50" cy="50" r="44.6"/>
<g>
	<g>
		<path class="st1" d="M32.7,55.9v10c-6.3,0-7.2-2.2-7.2-2.2s0-6.6,0-7.7c0-1.2,0-7.7,0-7.7s0.9-2.2,7.2-2.2V55.9z"/>
		<path class="st1" d="M25.6,55.9v6.4c-4,0-4.6-1.4-4.6-1.4s0-4.2,0-4.9c0-0.7,0-4.9,0-4.9s0.6-1.4,4.6-1.4V55.9z"/>
	</g>
	<path class="st2" d="M25.7,48.2c0-13.8,10.9-24.9,24.2-24.9s24.2,11.2,24.2,24.9"/>
	<g>
		<path class="st1" d="M67.2,55.9v-10c6.3,0,7.2,2.2,7.2,2.2s0,6.6,0,7.7c0,1.2,0,7.7,0,7.7s-0.9,2.2-7.2,2.2V55.9z"/>
		<path class="st1" d="M74.4,55.9v-6.4c4,0,4.6,1.4,4.6,1.4s0,4.2,0,4.9c0,0.7,0,4.9,0,4.9s-0.6,1.4-4.6,1.4V55.9z"/>
	</g>
</g>
</svg>
